<svg width="46" height="46" viewBox="0 0 46 46" fill="none" xmlns="http://www.w3.org/2000/svg">
<circle cx="23" cy="23" r="23" fill="#D7D7D7"/>
<path fill-rule="evenodd" clip-rule="evenodd" d="M15.2218 31.2794C14.636 30.6936 14.636 29.7439 15.2218 29.1581L28.6568 15.7231C29.2426 15.1373 30.1924 15.1373 30.7781 15.7231C31.3639 16.3088 31.3639 17.2586 30.7781 17.8444L17.3431 31.2794C16.7573 31.8652 15.8076 31.8652 15.2218 31.2794Z" fill="white"/>
<path fill-rule="evenodd" clip-rule="evenodd" d="M30.7792 31.2794C31.365 30.6936 31.365 29.7439 30.7792 29.1581L17.3442 15.7231C16.7584 15.1373 15.8086 15.1373 15.2228 15.7231C14.637 16.3088 14.637 17.2586 15.2228 17.8444L28.6579 31.2794C29.2436 31.8652 30.1934 31.8652 30.7792 31.2794Z" fill="white"/>
</svg>
